<svg xmlns="http://www.w3.org/2000/svg" viewBox="0 0 512 512" width="512" height="512">
  <!-- Solid white circular background canvas -->
  <circle cx="256" cy="256" r="250" fill="#ffffff" />
  
  <!-- Centered and scaled paths directly inlined to avoid sandboxed network blocks -->
  <g transform="translate(107.5, 121.75) scale(0.75)">
    <path d="M0 0 C1.71293678 -0.00135803 3.42587326 -0.00314021 5.1388092 -0.00531006 C9.74960425 -0.00983282 14.3603767 -0.00811726 18.97117209 -0.00493097 C23.80685722 -0.00238507 28.6425405 -0.00475068 33.47822571 -0.00631714 C41.58379461 -0.00813043 49.68935436 -0.00575263 57.79492188 -0.00097656 C67.17175133 0.00448467 76.5485591 0.00268659 85.92538804 -0.00280297 C93.98761229 -0.00733402 102.04983001 -0.0079853 110.11205512 -0.0053643 C114.92305693 -0.00380408 119.73404852 -0.00360123 124.54504967 -0.00690079 C129.05704332 -0.00978005 133.56900878 -0.00780283 138.08099937 -0.00200653 C139.7394913 -0.0006801 141.39798559 -0.00107109 143.05647659 -0.0032692 C145.31251974 -0.00598474 147.56847142 -0.00259483 149.82450867 0.00241089 C151.08891627 0.00278791 152.35332388 0.00316494 153.65604687 0.00355339 C156.58325195 0.12939453 156.58325195 0.12939453 158.58325195 1.12939453 C156.7309333 21.13443595 146.1235093 38.57628553 130.82324219 51.30175781 C109.85695757 67.72124711 84.594034 69.41152362 58.98574829 69.43435478 C55.62970795 69.43807536 52.27394844 69.45494861 48.91796875 69.47511292 C39.39027116 69.53002509 29.86253657 69.56129228 20.3347168 69.58569336 C14.47301878 69.60159768 8.6115289 69.63182596 2.74993896 69.67045784 C0.53011283 69.68205962 -1.68975048 69.68803777 -3.90960693 69.68813896 C-7.00986483 69.68833181 -10.10954852 69.70665091 -13.2097168 69.72875977 C-14.11377762 69.72418259 -15.01783844 69.71960541 -15.94929504 69.71488953 C-25.29183339 69.82037717 -33.29372038 72.28723461 -40.19799805 78.81298828 C-46.39204886 85.33511382 -49.57599873 92.08629167 -49.85424805 101.12939453 C-49.44039563 111.22997997 -46.60651094 118.88234269 -39.41674805 126.12939453 C-32.40414739 131.67990856 -25.48307651 133.42873326 -16.68359375 133.40063477 C-15.39669647 133.40847488 -15.39669647 133.40847488 -14.08380127 133.41647339 C-12.22597893 133.42668707 -10.36812818 133.43248919 -8.5102787 133.43435478 C-5.55141249 133.43803948 -2.59287525 133.45482996 0.36592102 133.47511292 C8.77725026 133.53027921 17.18862983 133.56096619 25.60009766 133.58569336 C30.75539869 133.60175659 35.91047156 133.63217951 41.06565285 133.67045784 C43.012058 133.68195883 44.95850434 133.68803686 46.90494347 133.68813896 C78.34755083 133.69038376 106.95826822 140.27305662 129.95825195 163.06689453 C150.00519119 183.55932131 159.3029609 209.19062781 159.0534668 237.51025391 C158.28666272 265.47604977 145.95798406 289.64662104 125.93481445 309.01611328 C101.9494012 330.57111091 74.16512905 334.47505826 43.10058594 334.35644531 C40.99958298 334.35587978 38.89857963 334.35620052 36.7975769 334.35733032 C31.14790186 334.35789931 25.49831341 334.34621932 19.84865832 334.33218241 C13.92434308 334.31959856 8.0000254 334.31849856 2.07569885 334.31613159 C-9.1187412 334.30993917 -20.31314175 334.2935589 -31.50756449 334.27343261 C-44.26224497 334.25100361 -57.01692745 334.24006264 -69.77162278 334.23004174 C-95.98668636 334.20919048 -122.20171498 334.17405843 -148.41674805 334.12939453 C-148.74674805 333.46939453 -149.07674805 332.80939453 -149.41674805 332.12939453 C-148.29591324 331.08220245 -148.29591324 331.08220245 -147.1524353 330.01385498 C-144.41911982 327.13189529 -142.62552245 324.40925907 -140.64575195 320.97802734 C-127.32529322 298.7807128 -107.74647852 272.43408435 -81.44751072 265.6190958 C-42.06683891 256.96965856 2.60331683 261.50477141 42.50286078 264.25084293 C45.42563016 264.44973786 48.34958676 264.62584063 51.27389264 264.80048132 C53.24621928 264.9290201 55.21604173 265.0943763 57.18549156 265.26129532 C66.86863791 265.84003209 74.40771935 263.6413506 81.81833744 257.18087864 C88.23180165 250.63452539 90.77904749 243.17702404 91.08325195 234.12939453 C90.77011854 224.81620062 88.04910608 217.70457113 81.64575195 210.88720703 C73.84305579 204.23718189 65.53185565 202.98128872 55.67236328 202.98754883 C54.78371078 202.9840744 53.89505829 202.98059998 52.97947693 202.97702026 C51.05177749 202.96967912 49.12406969 202.96432501 47.19635963 202.9607296 C44.1286969 202.95352738 41.06119075 202.93782812 37.99357605 202.91938782 C29.27161957 202.86712883 20.54974602 202.81907189 11.82763672 202.8034668 C6.48539489 202.79328462 1.14354434 202.7636971 -4.19854164 202.72214699 C-6.21833626 202.70996799 -8.23818651 202.7046913 -10.25801659 202.70694542 C-27.61456169 202.72153458 -43.61393551 200.85761929 -59.41674805 193.12939453 C-60.46088867 192.63826172 -61.5050293 192.14712891 -62.58081055 191.64111328 C-71.32431039 187.26936336 -78.25955172 181.67665668 -85.41674805 175.12939453 C-86.16827148 174.46037109 -86.91979492 173.79134766 -87.6940918 173.10205078 C-104.92158476 156.96620093 -115.86455496 131.62782293 -116.75268555 108.21923828 C-117.11038315 83.81325585 -112.06656898 63.53376603 -98.41674805 43.12939453 C-97.64911133 41.95957031 -97.64911133 41.95957031 -96.8659668 40.76611328 C-95.78347834 39.17271581 -94.61151833 37.64042753 -93.41674805 36.12939453 C-92.75674805 36.12939453 -92.09674805 36.12939453 -91.41674805 36.12939453 C-91.0300293 35.25541016 -91.0300293 35.25541016 -90.63549805 34.36376953 C-89.31840788 31.94910423 -87.86586421 30.31199276 -85.91674805 28.37939453 C-85.30831055 27.76580078 -84.69987305 27.15220703 -84.07299805 26.52001953 C-82.41674805 25.12939453 -82.41674805 25.12939453 -80.41674805 25.12939453 C-80.41674805 24.46939453 -80.41674805 23.80939453 -80.41674805 23.12939453 C-68.66192125 13.23596113 -53.80903963 6.49601037 -38.97924805 2.87939453 C-38.32424316 2.71616699 -37.66923828 2.55293945 -36.99438477 2.38476562 C-24.89872579 -0.372657 -12.33481018 -0.01659003 0 0 Z " fill="#093464" transform="translate(228.416748046875,17.87060546875)"/>
  <path d="M0 0 C1.72540819 -0.00322035 3.45081611 -0.00658499 5.17622375 -0.01008606 C8.76226436 -0.01602617 12.34828101 -0.01793074 15.93432617 -0.01733398 C20.53553491 -0.01723141 25.13659263 -0.03100347 29.73776531 -0.04810619 C33.28669449 -0.05918881 36.83558631 -0.06125453 40.38453102 -0.06072426 C42.08265527 -0.0619054 43.78078045 -0.06633471 45.47888756 -0.07405663 C47.83849436 -0.08380217 50.19776134 -0.08100282 52.55737305 -0.07495117 C53.25911652 -0.08057068 53.96085999 -0.08619019 54.68386841 -0.09197998 C59.50994896 -0.06036354 59.50994896 -0.06036354 61.73828125 2.16796875 C56.84319913 3.172518 51.95142756 4.14965229 47.01953125 4.95703125 C34.96740568 7.00941311 24.60663698 10.60669078 13.73828125 16.16796875 C13.10696289 16.4825 12.47564453 16.79703125 11.82519531 17.12109375 C-10.71369226 28.48078936 -26.86357754 48.01242984 -36.51171875 71.16796875 C-38.19232265 74.04900401 -39.72915926 75.66369956 -42.13671875 77.91796875 C-49.3592313 85.04720162 -51.75582405 91.49135267 -51.94921875 101.54296875 C-51.88659983 111.11992579 -48.8774307 117.66503154 -43.66015625 125.60546875 C-42.08570874 128.49048989 -41.43566685 131.09269692 -40.69921875 134.29296875 C-36.49352374 149.45895984 -28.6321522 162.371118 -17.26171875 173.16796875 C-16.55789062 173.88984375 -15.8540625 174.61171875 -15.12890625 175.35546875 C1.41390369 191.45797576 23.86510076 196.19218901 45.73828125 200.16796875 C45.73828125 200.82796875 45.73828125 201.48796875 45.73828125 202.16796875 C36.14005068 202.26143427 26.54198131 202.33211616 16.9433918 202.37521744 C12.48439364 202.39592377 8.02571112 202.42392316 3.56689453 202.46972656 C-0.75146626 202.51379983 -5.06952718 202.53723256 -9.38809586 202.54747772 C-11.02000767 202.55476064 -12.65190667 202.56897483 -14.28368759 202.59088898 C-30.43924626 202.7988432 -45.6307448 200.32311629 -60.26171875 193.16796875 C-61.30585938 192.67683594 -62.35 192.18570313 -63.42578125 191.6796875 C-72.1692811 187.30793758 -79.10452242 181.7152309 -86.26171875 175.16796875 C-87.01324219 174.49894531 -87.76476562 173.82992187 -88.5390625 173.140625 C-105.76655547 157.00477515 -116.70952567 131.66639715 -117.59765625 108.2578125 C-117.95535385 83.85183007 -112.91153968 63.57234025 -99.26171875 43.16796875 C-98.49408203 41.99814453 -98.49408203 41.99814453 -97.7109375 40.8046875 C-96.62844904 39.21129003 -95.45648903 37.67900175 -94.26171875 36.16796875 C-93.60171875 36.16796875 -92.94171875 36.16796875 -92.26171875 36.16796875 C-91.875 35.29398438 -91.875 35.29398438 -91.48046875 34.40234375 C-90.16337858 31.98767845 -88.71083491 30.35056698 -86.76171875 28.41796875 C-85.8490625 27.49757813 -85.8490625 27.49757813 -84.91796875 26.55859375 C-83.26171875 25.16796875 -83.26171875 25.16796875 -81.26171875 25.16796875 C-81.26171875 24.50796875 -81.26171875 23.84796875 -81.26171875 23.16796875 C-69.50689196 13.27453535 -54.65401033 6.53458459 -39.82421875 2.91796875 C-39.16921387 2.75474121 -38.51420898 2.59151367 -37.83935547 2.42333984 C-25.48247063 -0.3936339 -12.60107652 0.00557879 0 0 Z " fill="#10508E" transform="translate(229.26171875,17.83203125)"/>
  <path d="M0 0 C0.04682617 19.85457638 0.08204071 39.70914147 0.10362434 59.56376171 C0.11391463 68.7836562 0.12793175 78.00351628 0.15087891 87.22338867 C0.17088185 95.26418419 0.18373275 103.30495476 0.18817699 111.34577447 C0.19077273 115.59899346 0.19682645 119.85214113 0.21146011 124.10533714 C0.22515341 128.11817696 0.2291992 132.13091688 0.22621536 136.14377785 C0.22676032 137.60736257 0.2306672 139.07095104 0.23841095 140.53451538 C0.36923991 166.56364093 -6.49730589 188.45709239 -24.9609375 207.125 C-35.39319074 217.21944694 -49.76231319 226.2113904 -64.5625 227.25 C-67 227 -67 227 -68 226 C-68.09857042 224.21596468 -68.12632111 222.42799155 -68.12698364 220.64123535 C-68.12980347 219.47803268 -68.13262329 218.31483002 -68.13552856 217.11637878 C-68.13350433 215.82822769 -68.1314801 214.5400766 -68.12939453 213.21289062 C-68.13074876 211.85118055 -68.13252882 210.48947085 -68.13470459 209.12776184 C-68.13928325 205.41397907 -68.13748579 201.70022394 -68.1343255 197.98644066 C-68.13179592 194.09060974 -68.13414188 190.19478121 -68.13571167 186.2989502 C-68.13753507 179.73819556 -68.13512622 173.17745215 -68.13037109 166.61669922 C-68.12496437 159.07063271 -68.12666407 151.52459336 -68.1321975 143.97852755 C-68.13676736 137.48317628 -68.13735931 130.98783311 -68.13475883 124.49248075 C-68.13321251 120.62147294 -68.13295578 116.75047779 -68.13629532 112.87947083 C-68.18434207 47.75738916 -68.18434207 47.75738916 -43.875 21.4375 C-34.4902373 12.58475332 -24.05274699 6.41536276 -12 2 C-10.9996875 1.6184375 -9.999375 1.236875 -8.96875 0.84375 C-5.83079788 -0.04808902 -3.24358686 -0.06077505 0 0 Z " fill="#093261" transform="translate(83,124)"/>
  <path d="M0 0 C8.52644467 6.75206484 14.70441809 17.08877109 16 28 C17.05144184 39.35228614 14.69945373 50.62028184 7.8828125 59.9375 C0.22773114 68.3231493 -10.79904343 74.14714841 -22.19140625 75.203125 C-34.06971641 75.43795156 -45.55106185 71.60504532 -54.52734375 63.62890625 C-63.62711607 53.56364084 -66.91864131 42.36793625 -66.4140625 29.04296875 C-65.62220706 18.57205015 -60.55046017 9.18754547 -52.96875 2.1015625 C-37.7389743 -10.60779257 -16.30266383 -11.6404067 0 0 Z " fill="#185686" transform="translate(74,26)"/>
  <path d="M0 0 C1.875 0 1.875 0 4 1 C5.05047644 3.31104818 6.05007438 5.64583651 7 8 C7.99 8.66 8.98 9.32 10 10 C10.43237305 12.61376953 10.43237305 12.61376953 10.51171875 15.8828125 C10.54716797 17.04941406 10.58261719 18.21601562 10.61914062 19.41796875 C10.65297852 21.25294922 10.65297852 21.25294922 10.6875 23.125 C10.72166016 24.35605469 10.75582031 25.58710937 10.79101562 26.85546875 C10.87371564 29.9035551 10.94279427 32.95134571 11 36 C8.69 35.67 6.38 35.34 4 35 C3.505 35.99 3.505 35.99 3 37 C-9.33338144 34.16447492 -19.47032192 29.52526328 -26.6875 18.8125 C-29.66658313 13.95501268 -33 7.89861291 -33 2 C-30.55006477 1.95563498 -28.10658681 1.94168289 -25.65625 1.97265625 C-23.5831876 1.9939966 -21.50939723 1.94769815 -19.4375 1.875 C-14.56832917 3.46854682 -12.3113058 6.65798263 -9.11328125 10.5546875 C-7.19316005 12.77649133 -5.47007593 14.42955172 -3 16 C-2.34 16 -1.68 16 -1 16 C-2.5588334 12.17377257 -4.95433582 9.74852621 -8 7 C-8.99 6.67 -9.98 6.34 -11 6 C-11 4.68 -11 3.36 -11 2 C-9.02 2 -7.04 2 -5 2 C-5.0825 2.7425 -5.165 3.485 -5.25 4.25 C-4.92894816 7.78157027 -3.64734383 8.76630364 -1 11 C-1 8.7915684 -1.02442925 6.58310343 -1.0625 4.375 C-1 1 -1 1 0 0 Z " fill="#175987" transform="translate(41,64)"/>
  <path d="M0 0 C9.26132759 0.35620491 17.5616633 4.37291517 24.375 10.625 C30.63686046 17.43591712 33.70529803 24.93708618 35 34 C30.38 34.66 25.76 35.32 21 36 C20.67 36.99 20.34 37.98 20 39 C24.29 39 28.58 39 33 39 C33 40.32 33 41.64 33 43 C32.01 43 31.02 43 30 43 C30 42.34 30 41.68 30 41 C28.41632253 41.14204741 26.83306682 41.28880153 25.25 41.4375 C24.36828125 41.51871094 23.4865625 41.59992187 22.578125 41.68359375 C20.0342313 41.92243194 20.0342313 41.92243194 17.796875 42.66015625 C17.20390625 42.77230469 16.6109375 42.88445313 16 43 C15.34 42.34 14.68 41.68 14 41 C14.0309375 39.5459375 14.0309375 39.5459375 14.0625 38.0625 C14.3380531 35.03726261 14.3380531 35.03726261 12.625 33.5 C12.08875 33.005 11.5525 32.51 11 32 C10.59587891 30.61554687 10.59587891 30.61554687 10.18359375 29.203125 C8.83455371 25.55225758 7.26606991 23.88333956 4.4375 21.25 C0.07099698 17.14199396 0.07099698 17.14199396 -1 15 C-0.91089842 12.44192238 -0.76705754 9.9237399 -0.5625 7.375 C-0.51029297 6.66859375 -0.45808594 5.9621875 -0.40429688 5.234375 C-0.27458793 3.48920013 -0.13795046 1.74454275 0 0 Z " fill="#1A6590" transform="translate(54,19)"/>
  <path d="M0 0 C-0.03665771 0.56396484 -0.07331543 1.12792969 -0.11108398 1.70898438 C-1.41185235 14.24385265 -1.41185235 14.24385265 3.375 25.1875 C5.21535483 26.80443727 6.81437863 27.90718932 9 29 C8.67 30.32 8.34 31.64 8 33 C6.68 33 5.36 33 4 33 C4.144375 32.13375 4.28875 31.2675 4.4375 30.375 C4.39204585 27.03583286 4.39204585 27.03583286 2.4765625 25.72265625 C1.84492187 25.29855469 1.21328125 24.87445313 0.5625 24.4375 C-2.30241356 22.29313814 -2.92961657 21.34896697 -3.65234375 17.765625 C-3.7981009 15.423282 -3.89256646 13.0770488 -3.9296875 10.73046875 C-3.68417207 8.08627135 -3.68417207 8.08627135 -5 7 C-5.04063832 5.33382885 -5.042721 3.66611905 -5 2 C-5.66 2 -6.32 2 -7 2 C-6.505 16.355 -6.505 16.355 -6 31 C-7.32 31.33 -8.64 31.66 -10 32 C-11.125 27.25 -11.125 27.25 -10 25 C-9.98385116 23.3303193 -10.03484222 21.65971714 -10.12109375 19.9921875 C-10.16943359 19.00605469 -10.21777344 18.01992188 -10.26757812 17.00390625 C-10.32365234 15.97136719 -10.37972656 14.93882813 -10.4375 13.875 C-10.51581055 12.31458984 -10.51581055 12.31458984 -10.59570312 10.72265625 C-10.72560946 8.14814884 -10.86058252 5.57400704 -11 3 C-11.99 3 -12.98 3 -14 3 C-13.89558594 3.97839844 -13.79117188 4.95679688 -13.68359375 5.96484375 C-13.03708657 16.4013168 -13.03708657 16.4013168 -15.828125 21.03515625 C-18.14155328 23.45199938 -20.06093592 25.39262632 -23 27 C-27.34728682 26.65271318 -27.34728682 26.65271318 -29 25 C-29.12375 25.639375 -29.2475 26.27875 -29.375 26.9375 C-29.58125 27.618125 -29.7875 28.29875 -30 29 C-30.66 29.33 -31.32 29.66 -32 30 C-32 30.99 -32 31.98 -32 33 C-27.45194365 33.17835515 -24.1205746 32.99785435 -20 31 C-19.34 31.66 -18.68 32.32 -18 33 C-18.375 35.625 -18.375 35.625 -19 38 C-19.98226563 37.90912109 -19.98226563 37.90912109 -20.984375 37.81640625 C-27.98663453 37.17354344 -34.99184389 36.57484003 -42 36 C-40.1889903 25.13394178 -36.13341404 15.72287337 -27.42578125 8.68359375 C-18.78830668 2.68882477 -10.53231758 -0.13874909 0 0 Z " fill="#165883" transform="translate(50,18)"/>
  <path d="M0 0 C7.98899521 0.33995724 13.90246221 4.44881504 19.25 10.25 C25.33420296 17.99507174 28.648277 26.03770246 28 36 C27.16031982 39.64959032 25.76829373 42.70943601 24 46 C23.52433594 46.93070312 23.04867187 47.86140625 22.55859375 48.8203125 C17.60732248 57.57750073 10.48935619 62.75670292 1 66 C-1.91264343 66.23771572 -1.91264343 66.23771572 -5.1862793 66.22032166 C-6.43122162 66.2187355 -7.67616394 66.21714935 -8.95883179 66.21551514 C-10.33062886 66.20365366 -11.70242448 66.19162411 -13.07421875 66.17944336 C-14.52495007 66.17396536 -15.97568515 66.16941648 -17.42642212 66.16572571 C-20.54594302 66.15602683 -23.6653518 66.14021089 -26.78482056 66.11976433 C-31.71810293 66.08791675 -36.65135302 66.07244837 -41.5847168 66.05970764 C-53.83685896 66.02564283 -66.08891256 65.97294914 -78.34094238 65.9105835 C-87.86596352 65.86213043 -97.39090517 65.82004515 -106.91603184 65.79907519 C-111.81962875 65.78755425 -116.72289654 65.76214525 -121.62637329 65.72632778 C-124.6770912 65.70712962 -127.72774219 65.7004543 -130.77851486 65.69726372 C-132.19226923 65.69324644 -133.60601988 65.68405993 -135.01970291 65.66930008 C-136.95095231 65.64986422 -138.88237446 65.65078084 -140.8137207 65.6526947 C-141.89402054 65.64733169 -142.97432037 65.64196867 -144.08735657 65.63644314 C-149.94063085 66.36705026 -152.51744666 69.55674229 -156 74 C-156.66 74 -157.32 74 -158 74 C-158.495 75.485 -158.495 75.485 -159 77 C-160.6015625 78.578125 -160.6015625 78.578125 -162.625 80.25 C-169.68768648 85.88338558 -169.68768648 85.88338558 -175 93 C-175.66 93 -176.32 93 -177 93 C-177.20625 93.556875 -177.4125 94.11375 -177.625 94.6875 C-179.1521085 97.25581885 -180.9976554 98.70242551 -183.31640625 100.54296875 C-185.11378728 102.09847484 -186.58925119 103.74888955 -188.125 105.5625 C-205.86680976 126.33339923 -205.86680976 126.33339923 -216 131 C-214.87280151 127.61840452 -214.1804068 127.20096236 -211.43383789 125.13232422 C-206.82310633 121.22412018 -204.26479553 116.73013063 -201.25848389 111.54267883 C-189.48415216 91.55969257 -172.64815124 71.4085263 -150 64 C-118.48736964 56.26435172 -82.97093299 59.80680122 -50.87084961 60.98681641 C-50.0337545 61.01750532 -49.19665939 61.04819424 -48.33419776 61.07981312 C-40.28134404 61.38086216 -32.23457243 61.71636088 -24.19238895 62.23342848 C-21.25657775 62.41960825 -18.31968669 62.58280481 -15.38241875 62.74414229 C-13.40070917 62.86349272 -11.42128809 63.01915809 -9.44222164 63.17636299 C0.24867974 63.7061971 7.8173565 61.51808152 15.23483753 55.05173206 C21.64842241 48.50527432 24.19578925 41.04781635 24.5 32 C24.18649925 22.67588104 21.4548067 15.59443575 15.0703125 8.75390625 C12.065693 6.20848332 8.81857936 4.59955543 5.234375 3.0078125 C3 2 3 2 0 0 Z " fill="#02254D" transform="translate(295,220)"/>
  <path d="M0 0 C1.72540819 -0.00322035 3.45081611 -0.00658499 5.17622375 -0.01008606 C8.76226436 -0.01602617 12.34828101 -0.01793074 15.93432617 -0.01733398 C20.53553491 -0.01723141 25.13659263 -0.03100347 29.73776531 -0.04810619 C33.28669449 -0.05918881 36.83558631 -0.06125453 40.38453102 -0.06072426 C42.08265527 -0.0619054 43.78078045 -0.06633471 45.47888756 -0.07405663 C47.83849436 -0.08380217 50.19776134 -0.08100282 52.55737305 -0.07495117 C53.25911652 -0.08057068 53.96085999 -0.08619019 54.68386841 -0.09197998 C59.50994896 -0.06036354 59.50994896 -0.06036354 61.73828125 2.16796875 C60.72145264 2.18858368 59.70462402 2.20919861 58.65698242 2.23043823 C49.00797754 2.42715365 39.35919511 2.6327218 29.71055603 2.84664726 C24.75177819 2.95631491 19.7929758 3.06301456 14.83398438 3.16259766 C10.03568031 3.25906876 5.23761619 3.36377166 0.43960571 3.47385025 C-1.37806102 3.51416897 -3.19579279 3.55167165 -5.01358032 3.58611679 C-30.15084388 3.63970915 -30.15084388 3.63970915 -53.26171875 12.16796875 C-54.79900262 12.74233855 -56.34135491 13.30320706 -57.88671875 13.85546875 C-65.80337274 16.92494986 -72.35509012 22.15240639 -78.26171875 28.16796875 C-79.46217455 29.19805419 -80.6706793 30.21882742 -81.88671875 31.23046875 C-86.35819013 35.07392449 -90.14149598 39.44146634 -93.96484375 43.91015625 C-96.30293177 46.20848087 -97.2037899 46.53202779 -100.26171875 47.16796875 C-100.59171875 48.15796875 -100.92171875 49.14796875 -101.26171875 50.16796875 C-101.92171875 49.83796875 -102.58171875 49.50796875 -103.26171875 49.16796875 C-101.8114255 46.99551302 -100.35215931 44.83016786 -98.88671875 42.66796875 C-98.26796875 41.73791016 -98.26796875 41.73791016 -97.63671875 40.7890625 C-96.56272207 39.21271254 -95.41683343 37.68588118 -94.26171875 36.16796875 C-93.60171875 36.16796875 -92.94171875 36.16796875 -92.26171875 36.16796875 C-91.875 35.29398438 -91.875 35.29398438 -91.48046875 34.40234375 C-90.16337858 31.98767845 -88.71083491 30.35056698 -86.76171875 28.41796875 C-85.8490625 27.49757813 -85.8490625 27.49757813 -84.91796875 26.55859375 C-83.26171875 25.16796875 -83.26171875 25.16796875 -81.26171875 25.16796875 C-81.26171875 24.50796875 -81.26171875 23.84796875 -81.26171875 23.16796875 C-69.50689196 13.27453535 -54.65401033 6.53458459 -39.82421875 2.91796875 C-39.16921387 2.75474121 -38.51420898 2.59151367 -37.83935547 2.42333984 C-25.48247063 -0.3936339 -12.60107652 0.00557879 0 0 Z " fill="#215382" transform="translate(229.26171875,17.83203125)"/>
  <path d="M0 0 C0.495 0.99 0.495 0.99 1 2 C0.27554688 2.49628906 -0.44890625 2.99257812 -1.1953125 3.50390625 C-6.99422607 7.57860952 -11.54349872 11.51507534 -16 17 C-16.66 17 -17.32 17 -18 17 C-18.25265625 17.57234375 -18.5053125 18.1446875 -18.765625 18.734375 C-20.14893272 21.27335752 -21.8143143 23.10423988 -23.75 25.25 C-30.57267239 33.63568461 -33.98101953 44.49432629 -35.67578125 55.08203125 C-36 57 -36 57 -37 60 C-37.08649833 61.4273205 -37.11770173 62.85838184 -37.11352539 64.28831482 C-37.1134549 65.1638501 -37.1133844 66.03938538 -37.11331177 66.94145203 C-37.10814545 67.89977432 -37.10297913 68.85809662 -37.09765625 69.84545898 C-37.09619598 70.85740326 -37.09473572 71.86934753 -37.0932312 72.91195679 C-37.08942021 75.11525902 -37.08329844 77.31855816 -37.07516479 79.52184868 C-37.06238842 83.02670273 -37.05588029 86.5315188 -37.05102539 90.03639221 C-37.03765468 98.75776102 -37.01367237 107.47909463 -36.98962402 116.20043945 C-36.969727 123.54555634 -36.95414404 130.89065885 -36.94406128 138.23579597 C-36.93766787 141.65628254 -36.92515106 145.07670948 -36.91235352 148.49717712 C-36.8871173 158.48619645 -36.94222728 168.47043772 -37.31640625 178.45336914 C-37.34975319 179.71372435 -37.34975319 179.71372435 -37.3837738 180.99954128 C-37.49047852 183.31752014 -37.49047852 183.31752014 -38 187 C-39.485 187.99 -39.485 187.99 -41 189 C-41.02348764 174.56023593 -41.04098964 160.12047487 -41.05181217 145.68069553 C-41.05694173 138.97421642 -41.06404785 132.26775103 -41.07543945 125.5612793 C-41.0863829 119.07734489 -41.09230089 112.59342284 -41.09487724 106.1094799 C-41.09671099 103.64783471 -41.1002914 101.18619012 -41.10573006 98.72455025 C-41.17486359 66.1071689 -40.11663673 37.57331533 -16.8125 12.375 C-11.79276144 7.55464358 -5.78123772 3.83387344 0 0 Z " fill="#052C55" transform="translate(56,133)"/>
  <path d="M0 0 C20.72983034 16.83304638 33.83370231 40.22543911 37.90917969 66.55029297 C38.20214844 69.90185547 38.20214844 69.90185547 37.90917969 72.55029297 C36.39086914 74.21582031 36.39086914 74.21582031 34.90917969 75.55029297 C34.80895508 74.91115967 34.70873047 74.27202637 34.60546875 73.61352539 C32.1529218 57.20783741 32.1529218 57.20783741 26.90917969 41.55029297 C26.4825 40.50357422 26.05582031 39.45685547 25.61621094 38.37841797 C23.84293772 34.03103847 22.06106103 29.72573245 19.90917969 25.55029297 C19.24917969 25.55029297 18.58917969 25.55029297 17.90917969 25.55029297 C17.82667969 24.97279297 17.74417969 24.39529297 17.65917969 23.80029297 C16.67361339 20.84359407 15.18460539 19.70595942 12.90917969 17.55029297 C11.73247202 16.22581271 10.56667467 14.89159616 9.40917969 13.55029297 C4.98851088 8.30143574 4.98851088 8.30143574 -0.42675781 4.18310547 C-3.07314987 2.56112324 -5.2502867 0.76972883 -7.59082031 -1.26220703 C-15.96519881 -8.02900394 -25.42662569 -12.05349193 -36.09082031 -13.44970703 C-36.09082031 -14.10970703 -36.09082031 -14.76970703 -36.09082031 -15.44970703 C-47.27403496 -16.1897795 -58.41995905 -16.63296212 -69.62597656 -16.76611328 C-71.12626092 -16.78677162 -72.62654064 -16.80776973 -74.1268158 -16.8290863 C-78.01128289 -16.88339323 -81.8957941 -16.93319179 -85.78033447 -16.98193359 C-89.76993579 -17.03283105 -93.75947571 -17.08815496 -97.74902344 -17.14306641 C-105.52956992 -17.24952412 -113.31016864 -17.35120193 -121.09082031 -17.44970703 C-121.09082031 -17.77970703 -121.09082031 -18.10970703 -121.09082031 -18.44970703 C-120.47187393 -18.4600145 -119.85292755 -18.47032196 -119.21522522 -18.48094177 C-112.74193967 -18.58957349 -106.26877753 -18.70412114 -99.7956543 -18.82202148 C-97.38357133 -18.86518967 -94.97146135 -18.90687658 -92.55932617 -18.94702148 C-89.08146039 -19.00516537 -85.60372826 -19.06873021 -82.12597656 -19.13330078 C-81.05686539 -19.15001328 -79.98775421 -19.16672577 -78.88624573 -19.1839447 C-49.21956626 -19.76383583 -24.51925925 -18.88777851 0 0 Z " fill="#092B4F" transform="translate(349.0908203125,172.44970703125)"/>
  <path d="M0 0 C1.875 0 1.875 0 4 1 C5.05047644 3.31104818 6.05007438 5.64583651 7 8 C7.99 8.66 8.98 9.32 10 10 C10.43237305 12.61376953 10.43237305 12.61376953 10.51171875 15.8828125 C10.56489258 17.63271484 10.56489258 17.63271484 10.61914062 19.41796875 C10.64169922 20.64128906 10.66425781 21.86460938 10.6875 23.125 C10.73874023 24.97158203 10.73874023 24.97158203 10.79101562 26.85546875 C10.87371564 29.9035551 10.94279427 32.95134571 11 36 C7.535 35.505 7.535 35.505 4 35 C3.67 35.66 3.34 36.32 3 37 C0.99826733 34.99826733 1.62502357 31.06293108 1.4765625 28.34765625 C1.21265473 25.63255354 1.21265473 25.63255354 -2 24 C-2.33 27.3 -2.66 30.6 -3 34 C-3.66 33.67 -4.32 33.34 -5 33 C-5.04773176 30.68799266 -5.03695832 28.37470465 -5 26.0625 C-5.13696122 19.91316075 -6.2807464 16.72867303 -10.8125 12.25 C-13.24136284 10.14044114 -15.69724689 8.21370808 -18.32421875 6.359375 C-18.87722656 5.91078125 -19.43023438 5.4621875 -20 5 C-20 4.34 -20 3.68 -20 3 C-17.01785809 3.34212929 -15.39007534 3.63884974 -13.15625 5.70703125 C-12.6096875 6.40183594 -12.063125 7.09664063 -11.5 7.8125 C-8.89708246 10.97116028 -6.4042208 13.66567717 -3 16 C-2.34 16 -1.68 16 -1 16 C-2.5588334 12.17377257 -4.95433582 9.74852621 -8 7 C-8.99 6.67 -9.98 6.34 -11 6 C-11 4.68 -11 3.36 -11 2 C-9.02 2 -7.04 2 -5 2 C-5.0825 2.7425 -5.165 3.485 -5.25 4.25 C-4.92894816 7.78157027 -3.64734383 8.76630364 -1 11 C-1 8.7915684 -1.02442925 6.58310343 -1.0625 4.375 C-1 1 -1 1 0 0 Z " fill="#195F90" transform="translate(41,64)"/>
  <path d="M0 0 C1.67542976 0.28604898 3.34385343 0.61781233 5 1 C5 2.32 5 3.64 5 5 C8.67387495 5.85298376 12.0447393 6.10789471 15.8125 6.0625 C16.78832031 6.05347656 17.76414062 6.04445313 18.76953125 6.03515625 C19.50558594 6.02355469 20.24164063 6.01195313 21 6 C21 5.34 21 4.68 21 4 C22.32 4.66 23.64 5.32 25 6 C20.08825928 17.33049279 14.62338773 23.22215208 3.98046875 29.25 C2 30 2 30 -1 29 C-1.02465881 25.03069011 -1.04284023 21.06140966 -1.05493164 17.09204102 C-1.05997057 15.74079614 -1.06680177 14.38955674 -1.07543945 13.03833008 C-1.08752419 11.09979566 -1.09269828 9.161222 -1.09765625 7.22265625 C-1.10289307 6.05484619 -1.10812988 4.88703613 -1.11352539 3.68383789 C-1 1 -1 1 0 0 Z " fill="#164D79" transform="translate(63,68)"/>
  <path d="M0 0 C1.11484478 3.34453433 0.84602947 4.45958572 0.09375 7.8203125 C-3.59663379 26.80210076 -1.78641888 46.01619726 5 64 C5.42925781 65.18851562 5.85851562 66.37703125 6.30078125 67.6015625 C15.35498544 90.90065473 33.35832463 108.06134037 55.5625 118.8125 C60.37686657 120.90998719 65.24250722 122.21716788 70.35546875 123.37890625 C73 124 73 124 76.125 125.125 C83.5408028 127.38198346 91.68550035 127.17169633 99.3828125 127.31640625 C100.32309296 127.33718735 101.26337341 127.35796844 102.23214722 127.37937927 C105.19636685 127.44406432 108.16066475 127.50337739 111.125 127.5625 C113.15104933 127.60576257 115.17709113 127.64937914 117.203125 127.69335938 C122.13533921 127.79966087 127.06763106 127.9011492 132 128 C132 128.33 132 128.66 132 129 C125.35137429 129.1029022 118.70295971 129.17208219 112.05371094 129.21972656 C109.80005217 129.239625 107.54644351 129.26675366 105.29296875 129.30175781 C86.67843793 129.58329431 69.97746015 128.30267572 53 120 C51.43378906 119.26330078 51.43378906 119.26330078 49.8359375 118.51171875 C41.09243765 114.13996883 34.15719633 108.54726215 27 102 C25.87271484 100.99646484 25.87271484 100.99646484 24.72265625 99.97265625 C8.25745231 84.55079196 -2.66468265 60.36052695 -4.20703125 37.99829102 C-4.30254925 34.89171734 -4.32808662 31.79547256 -4.3125 28.6875 C-4.30947876 27.05252563 -4.30947876 27.05252563 -4.30639648 25.38452148 C-4.20063231 16.86828867 -3.8858754 7.77175081 0 0 Z " fill="#094474" transform="translate(116,91)"/>
  <path d="M0 0 C9.74384706 2.7839563 16.96577311 9.1385689 22 17.8125 C23.25 20.08203125 23.25 20.08203125 24 22 C23.67 22.66 23.34 23.32 23 24 C16.46598748 24.49033602 11.36820555 23.97777193 6.21923828 19.60205078 C2.75757389 16.26923531 0.29645297 13.47379479 -0.68359375 8.6015625 C-0.68710038 5.6489816 -0.50218151 2.90656572 0 0 Z " fill="#185082" transform="translate(63,21)"/>
  <path d="M0 0 C1.3921875 1.2065625 1.3921875 1.2065625 2.8125 2.4375 C3.45960938 2.98535156 4.10671875 3.53320312 4.7734375 4.09765625 C6.31805973 5.41735981 7.84296826 6.76035177 9.3515625 8.12109375 C16.90152428 14.70164956 24.98835768 18.82932256 34 23 C34.66 23.33 35.32 23.66 36 24 C36 24.66 36 25.32 36 26 C36.99 25.67 37.98 25.34 39 25 C39.33 25.33 39.66 25.66 40 26 C42.54969386 26.20235666 45.09692964 26.31915246 47.65234375 26.42578125 C50 27 50 27 51.31640625 29.04296875 C51.54199219 29.68878906 51.76757812 30.33460938 52 31 C52.69480469 30.81646973 53.38960937 30.63293945 54.10546875 30.44384766 C57.4579216 29.92978227 59.96528091 30.3350395 63.3125 30.8984375 C76.36692154 32.79564914 89.67256614 32.46102502 102.83947754 32.60089111 C106.47380165 32.64144589 110.10798167 32.69229844 113.7421875 32.7421875 C120.82801858 32.83799005 127.91394097 32.92268879 135 33 C135 33.66 135 34.32 135 35 C119.52647771 35.13671047 104.06015426 34.99689534 88.5897522 34.68161011 C86.71739198 34.64428484 84.84497235 34.60981561 82.97250366 34.57839966 C53.09753658 34.06502439 53.09753658 34.06502439 47 30 C45.61183266 29.74554978 44.21366204 29.5438147 42.8125 29.375 C25.56069823 26.16712471 11.30733544 13.69408333 -1 2 C-0.67 1.34 -0.34 0.68 0 0 Z " fill="#144B77" transform="translate(140,185)"/>
  <path d="M0 0 C-0.03665771 0.56396484 -0.07331543 1.12792969 -0.11108398 1.70898438 C-1.41185235 14.24385265 -1.41185235 14.24385265 3.375 25.1875 C5.21535483 26.80443727 6.81437863 27.90718932 9 29 C8.67 30.32 8.34 31.64 8 33 C6.68 33 5.36 33 4 33 C4.144375 32.13375 4.28875 31.2675 4.4375 30.375 C4.39204585 27.03583286 4.39204585 27.03583286 2.4765625 25.72265625 C1.84492187 25.29855469 1.21328125 24.87445313 0.5625 24.4375 C-2.30241356 22.29313814 -2.92961657 21.34896697 -3.65234375 17.765625 C-3.7981009 15.423282 -3.89256646 13.0770488 -3.9296875 10.73046875 C-3.68417207 8.08627135 -3.68417207 8.08627135 -5 7 C-5.04063832 5.33382885 -5.042721 3.66611905 -5 2 C-5.66 2 -6.32 2 -7 2 C-6.505 16.355 -6.505 16.355 -6 31 C-7.32 31.33 -8.64 31.66 -10 32 C-11.125 27.25 -11.125 27.25 -10 25 C-9.98385116 23.3303193 -10.03484222 21.65971714 -10.12109375 19.9921875 C-10.16943359 19.00605469 -10.21777344 18.01992188 -10.26757812 17.00390625 C-10.32365234 15.97136719 -10.37972656 14.93882813 -10.4375 13.875 C-10.51581055 12.31458984 -10.51581055 12.31458984 -10.59570312 10.72265625 C-10.72560946 8.14814884 -10.86058252 5.57400704 -11 3 C-11.99 3 -12.98 3 -14 3 C-13.89558594 3.97839844 -13.79117188 4.95679688 -13.68359375 5.96484375 C-13.03708657 16.4013168 -13.03708657 16.4013168 -15.828125 21.03515625 C-18.14155328 23.45199938 -20.06093592 25.39262632 -23 27 C-25.80078125 26.71875 -25.80078125 26.71875 -28 26 C-28 25.67 -28 25.34 -28 25 C-27.13375 24.814375 -26.2675 24.62875 -25.375 24.4375 C-20.84825787 22.50944317 -18.19748577 20.45981538 -16 16 C-15.21861014 11.32698223 -15.01312918 6.73306907 -15 2 C-9.7671264 0.5311232 -5.48235476 -0.10632446 0 0 Z " fill="#1E7C9A" transform="translate(50,18)"/>
  <path d="M0 0 C0.33 0 0.66 0 1 0 C2.06315488 21.67654665 -3.82361449 40.45853096 -15 59 C-16.32 58.67 -17.64 58.34 -19 58 C-18.7124585 57.4330542 -18.42491699 56.8661084 -18.12866211 56.28198242 C-17.01801145 54.0364164 -15.97330421 51.77099361 -14.94140625 49.48828125 C-14.55533203 48.64845703 -14.16925781 47.80863281 -13.77148438 46.94335938 C-12.96172192 45.18124301 -12.15969496 43.4155524 -11.36523438 41.64648438 C-10.97787109 40.81052734 -10.59050781 39.97457031 -10.19140625 39.11328125 C-9.84279541 38.34798096 -9.49418457 37.58268066 -9.13500977 36.79418945 C-8 35 -8 35 -5 34 C-5.66 33.67 -6.32 33.34 -7 33 C-6.34 30.03 -5.68 27.06 -5 24 C-4.34 24 -3.68 24 -3 24 C-3.05220703 22.02966797 -3.05220703 22.02966797 -3.10546875 20.01953125 C-3.13361466 18.28386699 -3.16091396 16.54818885 -3.1875 14.8125 C-3.21263672 13.94818359 -3.23777344 13.08386719 -3.26367188 12.19335938 C-3.31978206 7.31177337 -3.24441375 3.94723386 0 0 Z " fill="#113357" transform="translate(386,249)"/>
  <path d="M0 0 C1 1 1 1 1.1328125 3.65234375 C1.13023438 4.73644531 1.12765625 5.82054687 1.125 6.9375 C1.12886719 8.55978516 1.12886719 8.55978516 1.1328125 10.21484375 C1 13 1 13 0 15 C-2.14453125 15.37890625 -2.14453125 15.37890625 -4.8125 15.5625 C-7.99455538 15.79281125 -10.9256035 16.13286253 -14 17 C-15.125 13.25 -15.125 13.25 -14 11 C-15.32 10.34 -16.64 9.68 -18 9 C-14.68629 6.79086 -13.6553979 6.77518447 -9.8125 6.875 C-8.91144531 6.89304687 -8.01039062 6.91109375 -7.08203125 6.9296875 C-6.39496094 6.95289063 -5.70789063 6.97609375 -5 7 C-5 7.66 -5 8.32 -5 9 C-4.01 9 -3.02 9 -2 9 C-2 7.68 -2 6.36 -2 5 C-6.29 5 -10.58 5 -15 5 C-14.67 3.68 -14.34 2.36 -14 1 C-9.23258627 0.04651725 -4.84034716 -0.16407956 0 0 Z " fill="#195487" transform="translate(89,53)"/>
  <path d="M0 0 C1.98 0 3.96 0 6 0 C5.855625 0.70125 5.71125 1.4025 5.5625 2.125 C6.24668292 6.6210592 9.57335301 8.28152672 13 11 C15.77525649 13.68573209 16.17669127 15.43542589 16.25 19.1875 C16 23 16 23 15 24 C14.76712992 25.68183948 14.58735834 27.3712416 14.4375 29.0625 C14.35371094 29.98160156 14.26992188 30.90070313 14.18359375 31.84765625 C14.09271484 32.91306641 14.09271484 32.91306641 14 34 C13.67 34 13.34 34 13 34 C12.96261719 33.30132812 12.92523438 32.60265625 12.88671875 31.8828125 C12.82097656 30.97273438 12.75523438 30.06265625 12.6875 29.125 C12.62949219 28.22007813 12.57148437 27.31515625 12.51171875 26.3828125 C12.2117961 23.63778399 12.2117961 23.63778399 9 22 C8.67 25.3 8.34 28.6 8 32 C7.34 31.67 6.68 31.34 6 31 C5.95226824 28.68799266 5.96304168 26.37470465 6 24.0625 C5.86303878 17.91316075 4.7192536 14.72867303 0.1875 10.25 C-2.24136284 8.14044114 -4.69724689 6.21370808 -7.32421875 4.359375 C-7.87722656 3.91078125 -8.43023438 3.4621875 -9 3 C-9 2.34 -9 1.68 -9 1 C-6.01785809 1.34212929 -4.39007534 1.63884974 -2.15625 3.70703125 C-1.6096875 4.40183594 -1.063125 5.09664063 -0.5 5.8125 C2.10291754 8.97116028 4.5957792 11.66567717 8 14 C8.66 14 9.32 14 10 14 C8.4411666 10.17377257 6.04566418 7.74852621 3 5 C2.01 4.67 1.02 4.34 0 4 C0 2.68 0 1.36 0 0 Z " fill="#1E6D99" transform="translate(30,66)"/>
  <path d="M0 0 C1.67542976 0.28604898 3.34385343 0.61781233 5 1 C5 2.32 5 3.64 5 5 C6.32 5.66 7.64 6.32 9 7 C8.67 7.33 8.34 7.66 8 8 C7.76298761 10.85877909 7.57780818 13.69883297 7.4375 16.5625 C7.39431641 17.36880859 7.35113281 18.17511719 7.30664062 19.00585938 C7.20024738 21.00368805 7.09959112 23.0018207 7 25 C7.66 25.33 8.32 25.66 9 26 C3.82421875 29.22265625 3.82421875 29.22265625 2 30 C1.01 29.67 0.02 29.34 -1 29 C-1.02465881 25.03069011 -1.04284023 21.06140966 -1.05493164 17.09204102 C-1.05997057 15.74079614 -1.06680177 14.38955674 -1.07543945 13.03833008 C-1.08752419 11.09979566 -1.09269828 9.161222 -1.09765625 7.22265625 C-1.10289307 6.05484619 -1.10812988 4.88703613 -1.11352539 3.68383789 C-1 1 -1 1 0 0 Z " fill="#175481" transform="translate(63,68)"/>
  <path d="M0 0 C0.33 0 0.66 0 1 0 C1.04769531 1.01320313 1.09539063 2.02640625 1.14453125 3.0703125 C1.84230064 7.83820317 4.36092685 10.54842685 7.6875 13.875 C8.54251099 14.73967896 8.54251099 14.73967896 9.41479492 15.62182617 C14.81633049 20.623955 19.0292139 21.3908887 26.39453125 21.23828125 C27.68423828 21.12033203 27.68423828 21.12033203 29 21 C29.495 23.475 29.495 23.475 30 26 C27.36 26 24.72 26 22 26 C22 25.67 22 25.34 22 25 C19.58380177 24.74969023 19.58380177 24.74969023 17 25 C16.34 25.99 15.68 26.98 15 28 C13 24.25 13 24.25 13 22 C12.31550781 21.97035156 11.63101563 21.94070312 10.92578125 21.91015625 C6.59845965 20.56400681 4.24963686 17.67715204 1.1875 14.4375 C0.59001953 13.82197266 -0.00746094 13.20644531 -0.62304688 12.57226562 C-2.0912621 11.05706751 -3.54689553 9.52969562 -5 8 C-4.01 7.34 -3.02 6.68 -2 6 C-0.78715124 2.94570927 -0.78715124 2.94570927 0 0 Z " fill="#1C5184" transform="translate(59,25)"/>
  <path d="M0 0 C0.66 0.33 1.32 0.66 2 1 C-10.1239791 14.61926986 -10.1239791 14.61926986 -16.18359375 18.75390625 C-18.12490073 20.04451207 -18.12490073 20.04451207 -20.27734375 21.89453125 C-23.41020667 24.31721865 -26.66767227 26.21073222 -30.125 28.125 C-33.48061854 30.0016349 -36.79790875 31.8652725 -40 34 C-45.44419662 37.62946441 -52.14146875 39.52913259 -58.6875 38.6875 C-59.780625 38.460625 -60.87375 38.23375 -62 38 C-58.16214558 35.44143038 -54.47399126 34.85833142 -50.0078125 33.87890625 C-46.93804288 32.98189565 -44.70609654 31.66883637 -42 30 C-39.1875 29.8125 -39.1875 29.8125 -37 30 C-37 29.34 -37 28.68 -37 28 C-36.0925 27.7525 -35.185 27.505 -34.25 27.25 C-30.80297239 25.92422015 -29.52321216 24.60206254 -27 22 C-25.02583732 20.94991347 -23.02417134 19.95012124 -21 19 C-16.92464211 16.86528872 -14.82533103 14.59587586 -12 11 C-10.01739574 9.31267723 -8.0167658 7.64633943 -6 6 C-4.31471312 4.35216394 -2.64302953 2.68997323 -1 1 C-0.67 0.67 -0.34 0.34 0 0 Z " fill="#113156" transform="translate(364,311)"/>
  <path d="M0 0 C0.66 0.33 1.32 0.66 2 1 C2 1.66 2 2.32 2 3 C4.31 3 6.62 3 9 3 C8.625 4.9375 8.625 4.9375 8 7 C7.01 7.495 7.01 7.495 6 8 C6 8.99 6 9.98 6 11 C10.54805635 11.17835515 13.8794254 10.99785435 18 9 C18.66 9.66 19.32 10.32 20 11 C19.625 13.625 19.625 13.625 19 16 C18.34515625 15.93941406 17.6903125 15.87882812 17.015625 15.81640625 C10.01336547 15.17354344 3.00815611 14.57484003 -4 14 C-3.00956295 9.16371695 -2.04301154 4.52381127 0 0 Z " fill="#185B88" transform="translate(12,40)"/>
  <path d="M0 0 C0.94875 0.825 1.8975 1.65 2.875 2.5 C4.24876948 3.66811537 5.62388863 4.83464443 7 6 C7.72574219 6.62648437 8.45148438 7.25296875 9.19921875 7.8984375 C20.44523193 17.30419397 33.51199848 24.71157213 47.98828125 27.56640625 C50 28 50 28 52.9375 29.0625 C60.4284252 31.35564037 68.60275465 31.1701407 76.3828125 31.31640625 C77.32309296 31.33718735 78.26337341 31.35796844 79.23214722 31.37937927 C82.19636685 31.44406432 85.16066475 31.50337739 88.125 31.5625 C90.15104933 31.60576257 92.17709113 31.64937914 94.203125 31.69335938 C99.13533921 31.79966087 104.06763106 31.9011492 109 32 C109 32.33 109 32.66 109 33 C102.35137429 33.1029022 95.70295971 33.17208219 89.05371094 33.21972656 C86.80005217 33.239625 84.54644351 33.26675366 82.29296875 33.30175781 C63.67843793 33.58329431 46.97746015 32.30267572 30 24 C28.95585937 23.50886719 27.91171875 23.01773438 26.8359375 22.51171875 C16.73243121 17.4599656 7.61354485 10.38037671 0 2 C0 1.34 0 0.68 0 0 Z " fill="#024068" transform="translate(139,187)"/>
  <path d="M0 0 C7.98899521 0.33995724 13.90246221 4.44881504 19.25 10.25 C25.33420296 17.99507174 28.648277 26.03770246 28 36 C27.16031982 39.64959032 25.76829373 42.70943601 24 46 C23.52433594 46.93070312 23.04867188 47.86140625 22.55859375 48.8203125 C18.00671689 56.87110194 11.83456603 62.05514466 3 65 C0.66700175 65.03954234 -1.66708189 65.04401732 -4 65 C-4 64.67 -4 64.34 -4 64 C-3.38253906 63.85304688 -2.76507813 63.70609375 -2.12890625 63.5546875 C8.06001267 60.85625235 15.5452044 56.16125928 21 47 C25.26587376 39.56703815 25.2341825 30.34812417 23.34375 22.15625 C20.40367566 13.94431823 15.56365386 8.03182693 7.75 4.125 C6.91984375 3.75632813 6.0896875 3.38765625 5.234375 3.0078125 C3 2 3 2 0 0 Z " fill="#001945" transform="translate(295,220)"/>
  <path d="M0 0 C0.66 0 1.32 0 2 0 C3.03974499 3.41065139 3.11508506 6.52264842 3.09765625 10.078125 C3.09282227 11.81835938 3.09282227 11.81835938 3.08789062 13.59375 C3.07951172 14.8003125 3.07113281 16.006875 3.0625 17.25 C3.05798828 18.47203125 3.05347656 19.6940625 3.04882812 20.953125 C3.03704815 23.96879946 3.02059853 26.98437498 3 30 C1.35 30.33 -0.3 30.66 -2 31 C-2 21.43 -2 11.86 -2 2 C-1.34 2 -0.68 2 0 2 C0 1.34 0 0.68 0 0 Z " fill="#155283" transform="translate(60,68)"/>
  <path d="M0 0 C7.875 0.875 7.875 0.875 9 2 C8.98839844 2.78246094 8.97679687 3.56492187 8.96484375 4.37109375 C8.90669151 10.89245241 9.87720486 14.78458588 14.3125 19.6875 C19.22330108 24.13702642 23.09428664 25.0706897 29.62890625 24.9375 C30.41136719 24.958125 31.19382812 24.97875 32 25 C32.495 25.99 32.495 25.99 33 27 C28.39010942 27.96486082 24.60007161 28.09592708 20 27 C14.11884118 23.145673 7.17321358 16.89527491 5.109375 10.04296875 C5.07328125 9.36878906 5.0371875 8.69460937 5 8 C4.01 8.495 4.01 8.495 3 9 C2.01 8.34 1.02 7.68 0 7 C-0.1875 3.375 -0.1875 3.375 0 0 Z " fill="#26A3B6" transform="translate(54,19)"/>
  <path d="M0 0 C0.33 0 0.66 0 1 0 C2.43996311 16.63957369 -4.46564734 33.63131032 -14.8046875 46.40625 C-16.15878119 48.05199653 -16.15878119 48.05199653 -16.9375 50.5625 C-18.65524468 54.50320837 -21.88347624 57.10846592 -25 60 C-25 56.0480185 -23.62823828 54.85351584 -21 52 C-19.515 51.505 -19.515 51.505 -18 51 C-17.979375 50.05125 -17.95875 49.1025 -17.9375 48.125 C-17.43113878 44.49366665 -16.01368333 42.39935601 -13.8125 39.5 C-7.40798538 30.84204504 -3.7824164 20.60729375 -2.32421875 9.9765625 C-2 8 -2 8 -1 7 C-0.63239269 4.67182036 -0.29758419 2.3381615 0 0 Z " fill="#0D2D52" transform="translate(80,274)"/>
  <path d="M0 0 C3.82147388 -0.45857687 7.39930983 -0.82998749 10.8984375 0.984375 C14.43974102 4.05926294 15.38768243 6.73889771 15.875 11.375 C15.94317354 12.9157221 15.99390428 14.45778242 16 16 C8.44824453 13.55678499 4.14235278 8.45719698 0 2 C0 1.34 0 0.68 0 0 Z " fill="#115681" transform="translate(13,79)"/>
  <path d="M0 0 C-9.91600748 8.46366295 -23.38761471 17.074662 -37 16 C-37.33 15.34 -37.66 14.68 -38 14 C-37.34 14 -36.68 14 -36 14 C-36 10.37 -36 6.74 -36 3 C-35.67 3 -35.34 3 -35 3 C-35 6.3 -35 9.6 -35 13 C-20.61816138 9.37526271 -20.61816138 9.37526271 -8.5 1.375 C-5.93524237 -0.97602783 -3.10702625 -1.55351312 0 0 Z " fill="#092A52" transform="translate(53,335)"/>
  <path d="M0 0 C1.65 0 3.3 0 5 0 C6.125 3.75 6.125 3.75 5 6 C4.84479443 8.32273159 4.74980833 10.64959313 4.68359375 12.9765625 C4.66281265 13.66181 4.64203156 14.3470575 4.62062073 15.05307007 C4.55519815 17.24361069 4.49627446 19.43427189 4.4375 21.625 C4.39430782 23.1093875 4.3506933 24.59376278 4.30664062 26.078125 C4.19952447 29.71862084 4.09823638 33.35925251 4 37 C3.34 37 2.68 37 2 37 C1.98018066 36.0713916 1.96036133 35.1427832 1.93994141 34.18603516 C1.86191387 30.7454948 1.77522538 27.30540109 1.68261719 23.86523438 C1.64430002 22.37541111 1.60945192 20.88549446 1.578125 19.39550781 C1.53253271 17.25551952 1.47453126 15.11617564 1.4140625 12.9765625 C1.3826416 11.68830566 1.3512207 10.40004883 1.31884766 9.07275391 C1.31541732 5.89518495 1.31541732 5.89518495 -1 4 C-0.625 1.875 -0.625 1.875 0 0 Z " fill="#28D1D9" transform="translate(54,63)"/>
  <path d="M0 0 C0.66 0.33 1.32 0.66 2 1 C1.91878906 2.27875 1.83757813 3.5575 1.75390625 4.875 C0.84347403 15.7379122 0.84347403 15.7379122 5.375 25.125 C7.21650459 26.76947118 8.79705124 27.89852562 11 29 C10.67 30.32 10.34 31.64 10 33 C8.68 33 7.36 33 6 33 C6.144375 32.13375 6.28875 31.2675 6.4375 30.375 C6.39204585 27.03583286 6.39204585 27.03583286 4.4765625 25.72265625 C3.84492187 25.29855469 3.21328125 24.87445313 2.5625 24.4375 C-0.24083671 22.3223063 -0.9215803 21.37613282 -1.65234375 17.87109375 C-1.79753801 15.5912891 -1.89241749 13.30755693 -1.9296875 11.0234375 C-1.98934301 8.45825068 -2.25200019 6.43396764 -3 4 C-2.34 4 -1.68 4 -1 4 C-0.67 2.68 -0.34 1.36 0 0 Z " fill="#20CDD5" transform="translate(48,18)"/>
  <path d="M0 0 C0 0.66 0 1.32 0 2 C1.98 2 3.96 2 6 2 C6 2.33 6 2.66 6 3 C1.05 3.33 -3.9 3.66 -9 4 C-9 3.67 -9 3.34 -9 3 C-27.15 2.67 -45.3 2.34 -64 2 C-64 1.67 -64 1.34 -64 1 C-56.09840456 0.86932653 -48.1968048 0.73891804 -40.29519939 0.60884857 C-36.62624079 0.54844497 -32.95728373 0.48794982 -29.28833008 0.42724609 C-25.74813496 0.36867607 -22.20793596 0.31034568 -18.66773415 0.25218201 C-16.6585882 0.21910999 -14.64944636 0.18578927 -12.64030457 0.15246582 C-11.41926529 0.13244507 -10.19822601 0.11242432 -8.94018555 0.09179688 C-7.86318893 0.07403198 -6.78619232 0.05626709 -5.67655945 0.03796387 C-3.78452096 0.01112751 -1.8922288 0 0 0 Z " fill="#092E55" transform="translate(296,348)"/>
  <path d="M0 0 C1.8125 0.0625 1.8125 0.0625 4 1 C5.05047644 3.31104818 6.05007438 5.64583651 7 8 C7.99 8.66 8.98 9.32 10 10 C10.43237305 12.33837891 10.43237305 12.33837891 10.51171875 15.2265625 C10.54716797 16.2578125 10.58261719 17.2890625 10.61914062 18.3515625 C10.64169922 19.43179688 10.66425781 20.51203125 10.6875 21.625 C10.73874023 23.25695312 10.73874023 23.25695312 10.79101562 24.921875 C10.87368334 27.61448063 10.94277087 30.30675291 11 33 C8.525 33.495 8.525 33.495 6 34 C5.67 32.35 5.34 30.7 5 29 C6.32 28.67 7.64 28.34 9 28 C9 22.39 9 16.78 9 11 C7.68 10.34 6.36 9.68 5 9 C2.25 7.1875 2.25 7.1875 0 5 C-0.3125 2.25 -0.3125 2.25 0 0 Z " fill="#2AE3E4" transform="translate(41,64)"/>
  <path d="M0 0 C4.25380243 0.50481425 6.21899035 1.69536338 9.1875 4.75 C9.86167969 5.42546875 10.53585938 6.1009375 11.23046875 6.796875 C13.09084046 9.11309939 14.04595992 11.20148242 15 14 C10.88387209 14.08575266 8.92976709 13.7987912 5.75390625 11.0703125 C0 4.8138369 0 4.8138369 0 0 Z " fill="#165581" transform="translate(69,25)"/>
  <path d="M0 0 C4.16934056 0.49261044 5.87343443 1.43526669 8.5 4.6875 C9.0465625 5.35136719 9.593125 6.01523438 10.15625 6.69921875 C10.7646875 7.45847656 11.373125 8.21773437 12 9 C12.89074219 9.90621094 13.78148437 10.81242187 14.69921875 11.74609375 C17.62731458 15.88718684 17.60101702 18.46577187 17.3125 23.375 C17.28994141 24.11105469 17.26738281 24.84710938 17.24414062 25.60546875 C17.18572927 27.40453842 17.09606337 29.20254753 17 31 C16.34 30.67 15.68 30.34 15 30 C14.95226824 27.68799266 14.96304168 25.37470465 15 23.0625 C14.86303878 16.91316075 13.7192536 13.72867303 9.1875 9.25 C6.75863716 7.14044114 4.30275311 5.21370808 1.67578125 3.359375 C1.12277344 2.91078125 0.56976562 2.4621875 0 2 C0 1.34 0 0.68 0 0 Z " fill="#34CAD1" transform="translate(21,67)"/>
  <path d="M0 0 C1.67542976 0.28604898 3.34385343 0.61781233 5 1 C5 1.99 5 2.98 5 4 C4.01 4.495 4.01 4.495 3 5 C2.94589313 6.77049689 2.90715881 8.54146849 2.875 10.3125 C2.84019531 11.79169922 2.84019531 11.79169922 2.8046875 13.30078125 C2.79317361 16.22406527 2.79317361 16.22406527 5 19 C3.02 19.99 3.02 19.99 1 21 C1 23.64 1 26.28 1 29 C0.34 29 -0.32 29 -1 29 C-1.02465881 25.03069011 -1.04284023 21.06140966 -1.05493164 17.09204102 C-1.05997057 15.74079614 -1.06680177 14.38955674 -1.07543945 13.03833008 C-1.08752419 11.09979566 -1.09269828 9.161222 -1.09765625 7.22265625 C-1.10289307 6.05484619 -1.10812988 4.88703613 -1.11352539 3.68383789 C-1 1 -1 1 0 0 Z " fill="#32DEE6" transform="translate(63,68)"/>
  <path d="M0 0 C0.66 0.66 1.32 1.32 2 2 C1.67 2.99 1.34 3.98 1 5 C0.319375 5.268125 -0.36125 5.53625 -1.0625 5.8125 C-3.76735591 6.90595239 -5.21621889 7.88568828 -7.4375 9.6875 C-11.19659138 12.60241923 -15.1448738 14.79896318 -19.375 16.9375 C-19.99431396 17.25614014 -20.61362793 17.57478027 -21.25170898 17.90307617 C-22.80331749 18.66872452 -24.39952652 19.34258766 -26 20 C-26.66 19.67 -27.32 19.34 -28 19 C-25.07412297 16.35727236 -22.30073892 14.61280426 -18.6875 13.125 C-13.86257141 11.08121795 -10.03527879 8.30774425 -6 5 C-5.39542969 4.50628906 -4.79085938 4.01257813 -4.16796875 3.50390625 C-2.76906228 2.34743322 -1.38295012 1.1755076 0 0 Z " fill="#0D2D55" transform="translate(363,60)"/>
  <path d="M0 0 C1.32 0.66 2.64 1.32 4 2 C3.01 3.485 3.01 3.485 2 5 C-2.35647806 5.41996896 -6.61557569 5.12895366 -11 5 C-11.33 10.28 -11.66 15.56 -12 21 C-12.66 21 -13.32 21 -14 21 C-14.08071788 18.20775927 -14.14035408 15.41783434 -14.1875 12.625 C-14.21263672 11.8309375 -14.23777344 11.036875 -14.26367188 10.21875 C-14.29004405 8.14413852 -14.15486462 6.06899135 -14 4 C-10.57905758 1.71937172 -9.31812778 1.78074993 -5.3125 1.875 C-3.82169922 1.90207031 -3.82169922 1.90207031 -2.30078125 1.9296875 C-1.54152344 1.95289062 -0.78226563 1.97609375 0 2 C0 1.34 0 0.68 0 0 Z " fill="#28B8C2" transform="translate(84,72)"/>
  <path d="M0 0 C1.32 0.66 2.64 1.32 4 2 C3.67 3.65 3.34 5.3 3 7 C2.24074219 6.9278125 1.48148438 6.855625 0.69921875 6.78125 C-0.29464844 6.6884375 -1.28851562 6.595625 -2.3125 6.5 C-3.79169922 6.36078125 -3.79169922 6.36078125 -5.30078125 6.21875 C-8.04702139 5.95961143 -8.04702139 5.95961143 -11 6 C-11 5.34 -11 4.68 -11 4 C-13.64 4 -16.28 4 -19 4 C-19 3.67 -19 3.34 -19 3 C-17.31970703 2.92652344 -17.31970703 2.92652344 -15.60546875 2.8515625 C-14.13278797 2.77652144 -12.66013293 2.70097418 -11.1875 2.625 C-10.44951172 2.5940625 -9.71152344 2.563125 -8.95117188 2.53125 C-5.18106885 2.32653852 -3.20349259 2.13566173 0 0 Z " fill="#21DBE2" transform="translate(28,49)"/>
  <path d="M0 0 C1.32 0.66 2.64 1.32 4 2 C3.625 3.9375 3.625 3.9375 3 6 C2.01 6.495 2.01 6.495 1 7 C1.86625 7.84304687 2.7325 8.68609375 3.625 9.5546875 C4.75026041 10.66119357 5.87524628 11.76797888 7 12.875 C7.57234375 13.43058594 8.1446875 13.98617187 8.734375 14.55859375 C10.19450782 16.00134404 11.60149298 17.4974374 13 19 C13 19.66 13 20.32 13 21 C9.37190281 19.47238013 7.05653702 17.29392861 4.3125 14.5 C3.13107422 13.30890625 3.13107422 13.30890625 1.92578125 12.09375 C-1.42411405 8.45167316 -1.17713569 5.87123134 -1 1 C-0.67 0.67 -0.34 0.34 0 0 Z " fill="#20B9C4" transform="translate(54,26)"/>
  <path d="M0 0 C4.65178581 -0.59070296 7.50438203 -0.88254934 11.6015625 1.53515625 C15.53446449 4.77511837 17.76539707 6.69902014 18.6875 11.8125 C18 15 18 15 16 18 C14.46370779 16.46370779 14.84888974 14.88319298 14.75 12.75 C14.37434656 9.33100924 13.99017002 7.98477938 12.0625 5 C7.83189126 2.23715348 3.96769827 2.10610618 -1 2 C-0.67 1.34 -0.34 0.68 0 0 Z " fill="#40D2D4" transform="translate(13,77)"/>
  <path d="M0 0 C1.3348155 0.32734761 2.66771114 0.66251623 4 1 C6.24707241 1.2198223 8.49771238 1.40483987 10.75 1.5625 C11.92046875 1.64628906 13.0909375 1.73007812 14.296875 1.81640625 C15.18890625 1.87699219 16.0809375 1.93757813 17 2 C17 3.32 17 4.64 17 6 C16.01 6 15.02 6 14 6 C14 5.34 14 4.68 14 4 C12.41632253 4.14204741 10.83306682 4.28880153 9.25 4.4375 C8.36828125 4.51871094 7.4865625 4.59992187 6.578125 4.68359375 C4.30649548 4.96238465 2.20148177 5.38790577 0 6 C-0.38218767 4.34385343 -0.71395102 2.67542976 -1 1 C-0.67 0.67 -0.34 0.34 0 0 Z " fill="#2FC1C9" transform="translate(70,56)"/>
  <path d="M0 0 C0.66 0.33 1.32 0.66 2 1 C1.43152344 1.556875 0.86304688 2.11375 0.27734375 2.6875 C-4.23868572 7.1507545 -8.54933776 11.66621813 -12.58984375 16.56640625 C-13.05519531 17.03949219 -13.52054688 17.51257813 -14 18 C-14.66 18 -15.32 18 -16 18 C-13.7585472 10.60320574 -8.4117893 5.93450707 -2 2 C-1.34 1.34 -0.68 0.68 0 0 Z " fill="#1A4F85" transform="translate(147,46)"/>
  <path d="M0 0 C1.15518918 0.90484792 2.29885406 1.8244206 3.4375 2.75 C4.07558594 3.26046875 4.71367188 3.7709375 5.37109375 4.296875 C7.66950608 6.70001115 8 8.74622294 8 12 C7.01 12.33 6.02 12.66 5 13 C2.76378008 10.80915266 0.70724998 8.6317915 -1 6 C-0.875 2.5625 -0.875 2.5625 0 0 Z " fill="#1E5180" transform="translate(55,37)"/>
  <path d="M0 0 C0.99 0.33 1.98 0.66 3 1 C-3.04642076 5.72651602 -9.2091293 9.88574069 -15.9375 13.5625 C-16.5756665 13.92085938 -17.21383301 14.27921875 -17.87133789 14.6484375 C-22.47740988 17.09817729 -22.47740988 17.09817729 -25.20532227 16.58569336 C-25.79756592 16.39241455 -26.38980957 16.19913574 -27 16 C-25.90300781 15.45730469 -24.80601562 14.91460937 -23.67578125 14.35546875 C-22.22130061 13.6329203 -20.7668765 12.91025804 -19.3125 12.1875 C-18.59126953 11.83107422 -17.87003906 11.47464844 -17.12695312 11.10742188 C-9.49663792 7.37243753 -9.49663792 7.37243753 -3 2 C-2.01 1.34 -1.02 0.68 0 0 Z " fill="#143A66" transform="translate(349,328)"/>
  <path d="M0 0 C2.97 0 5.94 0 9 0 C9.33 1.32 9.66 2.64 10 4 C11.65 4 13.3 4 15 4 C15 4.33 15 4.66 15 5 C10.05 5 5.1 5 0 5 C0 3.35 0 1.7 0 0 Z " fill="#124B79" transform="translate(8,54)"/>
  <path d="M0 0 C1.0725 0.268125 2.145 0.53625 3.25 0.8125 C1.74692398 5.48873652 -1.6153531 6.67134357 -5.75 8.8125 C-6.74 9.3075 -6.74 9.3075 -7.75 9.8125 C-8.13187963 6.47105326 -7.8159914 4.93392418 -6.1875 1.9375 C-3.75 -0.1875 -3.75 -0.1875 0 0 Z " fill="#18597D" transform="translate(80.75,81.1875)"/>
  <path d="M0 0 C-0.33 1.65 -0.66 3.3 -1 5 C-4.63 5 -8.26 5 -12 5 C-11.67 3.68 -11.34 2.36 -11 1 C-7.27569643 0.30710631 -3.78916254 -0.11144596 0 0 Z " fill="#17487D" transform="translate(86,53)"/>
  <path d="M0 0 C0.33 0 0.66 0 1 0 C1.02505615 0.70084717 1.0501123 1.40169434 1.07592773 2.1237793 C1.19226545 5.31185488 1.31482044 8.49966242 1.4375 11.6875 C1.47681641 12.79029297 1.51613281 13.89308594 1.55664062 15.02929688 C1.59853516 16.09599609 1.64042969 17.16269531 1.68359375 18.26171875 C1.72025146 19.24100342 1.75690918 20.22028809 1.79467773 21.22924805 C1.99219333 23.89465177 2.41573033 26.39469788 3 29 C1.68 29.33 0.36 29.66 -1 30 C-1.38218767 28.34385343 -1.71395102 26.67542976 -2 25 C-1.67 24.67 -1.34 24.34 -1 24 C-0.84235595 22.22130274 -0.74899323 20.43681524 -0.68359375 18.65234375 C-0.64169922 17.57275391 -0.59980469 16.49316406 -0.55664062 15.38085938 C-0.51732422 14.24455078 -0.47800781 13.10824219 -0.4375 11.9375 C-0.39431641 10.79732422 -0.35113281 9.65714844 -0.30664062 8.48242188 C-0.20017161 5.65507805 -0.09815793 2.82764262 0 0 Z " fill="#37E6E6" transform="translate(41,20)"/>
  <path d="M0 0 C1.98 0 3.96 0 6 0 C5.855625 0.70125 5.71125 1.4025 5.5625 2.125 C6.16867361 6.10842658 8.16924507 7.16687316 11.2421875 9.57421875 C13.20621183 11.16726071 14.61808075 12.88647644 16 15 C15.67 15.66 15.34 16.32 15 17 C14.16855469 16.14535156 13.33710937 15.29070312 12.48046875 14.41015625 C11.38307952 13.29400823 10.28540855 12.17813718 9.1875 11.0625 C8.64029297 10.49853516 8.09308594 9.93457031 7.52929688 9.35351562 C4.22039606 5.98970438 4.22039606 5.98970438 0 4 C0 2.68 0 1.36 0 0 Z " fill="#21D6DD" transform="translate(30,66)"/>
  <path d="M0 0 C0 0.66 0 1.32 0 2 C-6.770816 4.20300447 -11.97146041 5.4587535 -19 4 C-13.06147771 0.04098514 -6.91895619 -0.24710558 0 0 Z " fill="#16355D" transform="translate(321,345)"/>
  <path d="M0 0 C0.33 3.63 0.66 7.26 1 11 C-1.40545638 12.20272819 -2.94996953 12.10071472 -5.625 12.0625 C-6.85089844 12.04896484 -6.85089844 12.04896484 -8.1015625 12.03515625 C-9.04128906 12.01775391 -9.04128906 12.01775391 -10 12 C-10 11.34 -10 10.68 -10 10 C-7.69 10.33 -5.38 10.66 -3 11 C-3 7.7 -3 4.4 -3 1 C-1 0 -1 0 0 0 Z " fill="#0D4E7F" transform="translate(55,89)"/>
  <path d="M0 0 C-3.03868984 2.33251544 -6.16102198 4.47836579 -9.375 6.5625 C-10.74785156 7.46162109 -10.74785156 7.46162109 -12.1484375 8.37890625 C-15.04293714 10.02440947 -17.81495369 11.05576061 -21 12 C-15.82787006 6.11447283 -8.21075998 -0.75860282 0 0 Z M-23 12 C-22.01 12.495 -22.01 12.495 -21 13 C-21.99 13.495 -21.99 13.495 -23 14 C-23 13.34 -23 12.68 -23 12 Z " fill="#124678" transform="translate(171,29)"/>
  <path d="M0 0 C0.33 0.99 0.66 1.98 1 3 C-0.33481289 5.43042259 -1.69867994 7.65295724 -3.25 9.9375 C-3.65863281 10.55818359 -4.06726563 11.17886719 -4.48828125 11.81835938 C-5.64099596 13.55855087 -6.81487026 15.28177238 -8 17 C-8.55171875 17.80566406 -9.1034375 18.61132812 -9.671875 19.44140625 C-10.32929688 20.21291016 -10.32929688 20.21291016 -11 21 C-11.66 21 -12.32 21 -13 21 C-13.33 20.01 -13.66 19.02 -14 18 C-13.01 16.515 -13.01 16.515 -12 15 C-11.01 15 -10.02 15 -9 15 C-7.33412772 13.14603196 -7.33412772 13.14603196 -5.875 10.75 C-5.35679687 9.96109375 -4.83859375 9.1721875 -4.3046875 8.359375 C-3.10634305 6.19230898 -2.45475766 4.41797978 -2 2 C-1.34 2 -0.68 2 0 2 C0 1.34 0 0.68 0 0 Z " fill="#042653" transform="translate(380,39)"/>
  <path d="M0 0 C1.4540625 0.0309375 1.4540625 0.0309375 2.9375 0.0625 C2.9375 0.3925 2.9375 0.7225 2.9375 1.0625 C5.2475 1.3925 7.5575 1.7225 9.9375 2.0625 C9.9375 2.7225 9.9375 3.3825 9.9375 4.0625 C3.5025 4.5575 3.5025 4.5575 -3.0625 5.0625 C-3.3925 3.7425 -3.7225 2.4225 -4.0625 1.0625 C-3.0625 0.0625 -3.0625 0.0625 0 0 Z " fill="#21A0AE" transform="translate(79.0625,48.9375)"/>
  <path d="M0 0 C0.33 0 0.66 0 1 0 C2.3598502 12.74229999 2.3598502 12.74229999 -0.828125 18.03515625 C-3.14155328 20.45199938 -5.06093592 22.39262632 -8 24 C-10.80078125 23.71875 -10.80078125 23.71875 -13 23 C-13 22.67 -13 22.34 -13 22 C-12.13375 21.814375 -11.2675 21.62875 -10.375 21.4375 C-5.87318911 19.52006203 -3.23039841 17.40229457 -1 13 C-0.2259213 8.6590881 -0.01324655 4.4044774 0 0 Z " fill="#40D5D5" transform="translate(35,21)"/>
  <path d="M0 0 C7.26 0 14.52 0 22 0 C19.37548383 2.62451617 17.5122172 2.5832868 13.875 3.125 C12.77929688 3.29257812 11.68359375 3.46015625 10.5546875 3.6328125 C9.71164062 3.75398438 8.86859375 3.87515625 8 4 C8 3.01 8 2.02 8 1 C5.36 1 2.72 1 0 1 C0 0.67 0 0.34 0 0 Z " fill="#10457B" transform="translate(261,20)"/>
  <path d="M0 0 C3.12492251 -0.05791844 6.24970766 -0.09356746 9.375 -0.125 C10.26445312 -0.14175781 11.15390625 -0.15851563 12.0703125 -0.17578125 C12.92109375 -0.18222656 13.771875 -0.18867188 14.6484375 -0.1953125 C15.82672119 -0.21102295 15.82672119 -0.21102295 17.02880859 -0.22705078 C19 0 19 0 21 2 C16.2710653 2.99440216 11.90729882 2.96565891 7.125 2.5625 C6.43664062 2.51029297 5.74828125 2.45808594 5.0390625 2.40429688 C3.35887242 2.27594902 1.67935251 2.13887775 0 2 C0 1.34 0 0.68 0 0 Z " fill="#062C4F" transform="translate(278,218)"/>
  <path d="M0 0 C2.35694954 0.09031574 4.71153582 0.24688128 7.0625 0.4375 C8.35285156 0.53933594 9.64320312 0.64117187 10.97265625 0.74609375 C12.47119141 0.87177734 12.47119141 0.87177734 14 1 C14 1.66 14 2.32 14 3 C12.98679687 3.09087891 12.98679687 3.09087891 11.953125 3.18359375 C11.06109375 3.26738281 10.1690625 3.35117188 9.25 3.4375 C8.36828125 3.51871094 7.4865625 3.59992188 6.578125 3.68359375 C4.30649548 3.96238465 2.20148177 4.38790577 0 5 C-0.5625 3.0625 -0.5625 3.0625 -1 1 C-0.67 0.67 -0.34 0.34 0 0 Z " fill="#34C4CD" transform="translate(75,65)"/>
  <path d="M0 0 C1.65 0.33 3.3 0.66 5 1 C4.67 2.65 4.34 4.3 4 6 C2.68 6 1.36 6 0 6 C0 5.01 0 4.02 0 3 C-4.62 3 -9.24 3 -14 3 C-14 2.67 -14 2.34 -14 2 C-9.38 2 -4.76 2 0 2 C0 1.34 0 0.68 0 0 Z " fill="#2DD6DF" transform="translate(23,58)"/>
  <path d="M0 0 C0.49230769 6.4 0.49230769 6.4 -2 9.4375 C-2.99 10.2109375 -2.99 10.2109375 -4 11 C-4.66 10.67 -5.32 10.34 -6 10 C-5.51171875 3.9453125 -5.51171875 3.9453125 -5 2 C-2 0 -2 0 0 0 Z " fill="#18658F" transform="translate(69,87)"/>
  <path d="M0 0 C0.33 0.66 0.66 1.32 1 2 C0.26394531 2.50789062 -0.47210938 3.01578125 -1.23046875 3.5390625 C-6.55483078 7.29495328 -11.16423239 10.70928605 -15 16 C-15.66 15.01 -16.32 14.02 -17 13 C-11.62907444 7.98962269 -6.35458569 3.69721349 0 0 Z " fill="#083052" transform="translate(56,133)"/>
  <path d="M0 0 C1.32 0.33 2.64 0.66 4 1 C3.34 1 2.68 1 2 1 C4.70040239 5.8607243 6.94856645 9.2109871 12.25 11.25 C13.1575 11.4975 14.065 11.745 15 12 C14.67 12.66 14.34 13.32 14 14 C7.9250347 13.00816893 5.275834 10.6837114 1.28515625 6.0703125 C0 4 0 4 0 0 Z " fill="#38CAD1" transform="translate(69,25)"/>
  <path d="M0 0 C1.32 0 2.64 0 4 0 C3.67 5.28 3.34 10.56 3 16 C2.67 16 2.34 16 2 16 C1.92652344 14.93458984 1.92652344 14.93458984 1.8515625 13.84765625 C1.73941406 12.46900391 1.73941406 12.46900391 1.625 11.0625 C1.55539063 10.14597656 1.48578125 9.22945312 1.4140625 8.28515625 C1.27742188 7.53105469 1.14078125 6.77695313 1 6 C0.34 5.67 -0.32 5.34 -1 5 C-0.67 3.35 -0.34 1.7 0 0 Z " fill="#40DBDD" transform="translate(41,84)"/>
  <path d="M0 0 C1.67542976 0.28604898 3.34385343 0.61781233 5 1 C5 1.99 5 2.98 5 4 C4.01 4.66 3.02 5.32 2 6 C1.41810734 8.42521494 1.41810734 8.42521494 1.3125 11.125 C1.24675781 12.03507812 1.18101563 12.94515625 1.11328125 13.8828125 C1.07589844 14.58148438 1.03851563 15.28015625 1 16 C0.67 16 0.34 16 0 16 C-0.19389096 13.5211787 -0.38040123 11.04219069 -0.5625 8.5625 C-0.61857422 7.85544922 -0.67464844 7.14839844 -0.73242188 6.41992188 C-0.86190993 4.61572163 -0.93521608 2.80768048 -1 1 C-0.67 0.67 -0.34 0.34 0 0 Z " fill="#28C3CD" transform="translate(63,68)"/>
  <path d="M0 0 C1.8125 0.0625 1.8125 0.0625 4 1 C5.06652192 3.30368736 6.06421005 5.64018187 7 8 C8.53951047 9.88029239 8.53951047 9.88029239 10 11 C5.64122922 10.49706491 3.01940914 8.01940914 0 5 C-0.375 2.1875 -0.375 2.1875 0 0 Z " fill="#2CDADD" transform="translate(41,64)"/>
  <path d="M0 0 C0.66 0.33 1.32 0.66 2 1 C1.67 5.95 1.34 10.9 1 16 C0.67 16 0.34 16 0 16 C-0.12375 14.88625 -0.2475 13.7725 -0.375 12.625 C-0.6465813 8.96896323 -0.6465813 8.96896323 -3 7 C-3 6.01 -3 5.02 -3 4 C-2.34 4 -1.68 4 -1 4 C-0.67 2.68 -0.34 1.36 0 0 Z " fill="#3EDDE0" transform="translate(48,18)"/>
  <path d="M0 0 C0 3.93169105 -1.39419615 5.16427228 -4 8 C-4.66 8 -5.32 8 -6 8 C-6.20625 8.556875 -6.4125 9.11375 -6.625 9.6875 C-8.55000774 12.92501302 -11.03850902 14.68231141 -14 17 C-14.33 16.34 -14.66 15.68 -15 15 C-14.50628906 14.59007812 -14.01257813 14.18015625 -13.50390625 13.7578125 C-12.86324219 13.21898437 -12.22257812 12.68015625 -11.5625 12.125 C-10.92441406 11.59132813 -10.28632812 11.05765625 -9.62890625 10.5078125 C-7.89194996 9.0777243 -7.89194996 9.0777243 -7 7 C-6.34 7 -5.68 7 -5 7 C-4.731875 6.401875 -4.46375 5.80375 -4.1875 5.1875 C-3.01506533 3.02775192 -1.80630718 1.64209744 0 0 Z " fill="#0F2F5A" transform="translate(125,306)"/>
  <path d="M0 0 C2.93835036 1.03706483 5.27825628 2.18752054 7.875 3.9375 C11.19271766 6.12719366 14.32127622 7.52851049 18 9 C14.3904343 10.20318857 12.60036053 9.47514354 9.140625 8.09765625 C5.63578146 6.30046458 2.71910728 3.83806822 0 1 C0 0.67 0 0.34 0 0 Z " fill="#012147" transform="translate(186,143)"/>
  <path d="M0 0 C0.33 0 0.66 0 1 0 C1.375 2.1875 1.375 2.1875 1 5 C-1.8125 7.8125 -1.8125 7.8125 -5 10 C-5.99 10 -6.98 10 -8 10 C-7.67 9.01 -7.34 8.02 -7 7 C-6.34 7 -5.68 7 -5 7 C-4.731875 6.360625 -4.46375 5.72125 -4.1875 5.0625 C-3 3 -3 3 0 2 C0 1.34 0 0.68 0 0 Z " fill="#13547C" transform="translate(25,26)"/>
  <path d="M0 0 C3.3 0 6.6 0 10 0 C9.01 0.495 9.01 0.495 8 1 C8 1.66 8 2.32 8 3 C5.29120665 4.35439668 2.99066732 4.06501451 0 4 C0 2.68 0 1.36 0 0 Z " fill="#144D7C" transform="translate(8,62)"/>
  <path d="M0 0 C0.99 0 1.98 0 3 0 C3.42755682 2.99289774 3.55953389 5.13738526 1.875 7.734375 C-0.86227285 10.72826718 -2.24079203 11.91564356 -6.375 12.375 C-7.24125 12.25125 -8.1075 12.1275 -9 12 C-8.443125 11.7525 -7.88625 11.505 -7.3125 11.25 C-4.48425845 9.72122078 -2.28292304 8.28292304 0 6 C0.41809201 2.83151973 0.41809201 2.83151973 0 0 Z " fill="#57D1D2" transform="translate(25,25)"/>
  <path d="M0 0 C-0.75 7.75 -0.75 7.75 -3 10 C-4 9 -4 9 -4.0625 5.4375 C-4.041875 4.303125 -4.02125 3.16875 -4 2 C-4.99 1.67 -5.98 1.34 -7 1 C-2.25 0 -2.25 0 0 0 Z " fill="#102F51" transform="translate(387,19)"/>
  <path d="M0 0 C5.53846154 -0.36923077 5.53846154 -0.36923077 7.875 1.5 C8.24625 1.995 8.6175 2.49 9 3 C8.67 3.99 8.34 4.98 8 6 C4.74456771 5.65120368 3.98126893 4.97866739 1.75 2.4375 C1.1725 1.633125 0.595 0.82875 0 0 Z " fill="#164F80" transform="translate(32,75)"/>
  <path d="M0 0 C3.3 0 6.6 0 10 0 C10 1.32 10 2.64 10 4 C8.35 4 6.7 4 5 4 C5 3.34 5 2.68 5 2 C3.35 1.67 1.7 1.34 0 1 C0 0.67 0 0.34 0 0 Z " fill="#4ED3D9" transform="translate(8,66)"/>
  <path d="M0 0 C1.17175781 0.12761719 2.34351563 0.25523437 3.55078125 0.38671875 C4.73027344 0.50660156 5.90976562 0.62648437 7.125 0.75 C8.48044922 0.91048828 8.48044922 0.91048828 9.86328125 1.07421875 C9.86328125 1.40421875 9.86328125 1.73421875 9.86328125 2.07421875 C1.94328125 2.56921875 1.94328125 2.56921875 -6.13671875 3.07421875 C-3.13671875 0.07421875 -3.13671875 0.07421875 0 0 Z " fill="#031F4F" transform="translate(291.13671875,151.92578125)"/>
  <path d="M0 0 C2.86724686 0.57344937 3.8614515 0.8614515 6 3 C5.34 3 4.68 3 4 3 C3.67 3.99 3.34 4.98 3 6 C1.68 5.67 0.36 5.34 -1 5 C-0.67 3.35 -0.34 1.7 0 0 Z " fill="#27E3E0" transform="translate(70,56)"/>
  <path d="M0 0 C0 0.66 0 1.32 0 2 C1.98 2 3.96 2 6 2 C6 2.33 6 2.66 6 3 C1.05 3.33 -3.9 3.66 -9 4 C-6.1329385 1.1329385 -4.08408532 0 0 0 Z " fill="#092360" transform="translate(296,348)"/>
  <path d="M0 0 C1.11375 0.1546875 1.11375 0.1546875 2.25 0.3125 C1.92 1.3025 1.59 2.2925 1.25 3.3125 C-0.4 3.6425 -2.05 3.9725 -3.75 4.3125 C-4.08 5.3025 -4.41 6.2925 -4.75 7.3125 C-5.41 6.6525 -6.07 5.9925 -6.75 5.3125 C-3.42692308 0.38942308 -3.42692308 0.38942308 0 0 Z " fill="#3DC3C9" transform="translate(79.75,80.6875)"/>
  <path d="M0 0 C1.98 0.495 1.98 0.495 4 1 C4 2.98 4 4.96 4 7 C3.01 7 2.02 7 1 7 C1 6.34 1 5.68 1 5 C0.34 4.67 -0.32 4.34 -1 4 C-0.67 2.68 -0.34 1.36 0 0 Z " fill="#12889E" transform="translate(86,53)"/>
  <path d="M0 0 C0.33 0 0.66 0 1 0 C1.22281874 1.91503674 1.42771076 3.83216506 1.625 5.75 C1.74101562 6.81734375 1.85703125 7.8846875 1.9765625 8.984375 C2.00029475 12.03792399 1.61420985 13.46162421 0 16 C-0.19672365 14.27185839 -0.38196799 12.54240803 -0.5625 10.8125 C-0.71912109 9.36810547 -0.71912109 9.36810547 -0.87890625 7.89453125 C-0.99758751 5.05766623 -0.67765639 2.74576329 0 0 Z " fill="#072952" transform="translate(321,244)"/>
  <path d="M0 0 C0.25 6.625 0.25 6.625 -2 10 C-3 9 -3 9 -3.09765625 7.15234375 C-3.06510417 5.1015625 -3.03255208 3.05078125 -3 1 C-1 0 -1 0 0 0 Z " fill="#2CC4CF" transform="translate(31,85)"/>
  <path d="M0 0 C0.99 0 1.98 0 3 0 C3 1.98 3 3.96 3 6 C1.68 6 0.36 6 -1 6 C-1 5.01 -1 4.02 -1 3 C-1.66 2.67 -2.32 2.34 -3 2 C-2.01 2 -1.02 2 0 2 C0 1.34 0 0.68 0 0 Z " fill="#126488" transform="translate(87,60)"/>
  <path d="M0 0 C0.33 0.99 0.66 1.98 1 3 C-1.31 3.66 -3.62 4.32 -6 5 C-6.33 4.01 -6.66 3.02 -7 2 C-4.69 1.34 -2.38 0.68 0 0 Z " fill="#185189" transform="translate(81,53)"/>
  <path d="M0 0 C0.66 0.33 1.32 0.66 2 1 C0.02 3.97 -1.96 6.94 -4 10 C-4.66 9.34 -5.32 8.68 -6 8 C-4.02 5.36 -2.04 2.72 0 0 Z " fill="#0E2F59" transform="translate(375,45)"/>
  <path d="M0 0 C2.97 0 5.94 0 9 0 C8.67 1.65 8.34 3.3 8 5 C6.68 4.34 5.36 3.68 4 3 C4.33 2.34 4.66 1.68 5 1 C3.35 1 1.7 1 0 1 C0 0.67 0 0.34 0 0 Z " fill="#134E7E" transform="translate(80,68)"/>
  <path d="M0 0 C-0.33 0.99 -0.66 1.98 -1 3 C-6 2 -6 2 -11 1 C-11 0.67 -11 0.34 -11 0 C-6.98195309 -0.84098656 -3.98196457 -1.05404945 0 0 Z " fill="#1BBECC" transform="translate(32,53)"/>
  <path d="M0 0 C-0.33 0.99 -0.66 1.98 -1 3 C-1.99 3 -2.98 3 -4 3 C-4 2.34 -4 1.68 -4 1 C-6.64 1 -9.28 1 -12 1 C-12 0.67 -12 0.34 -12 0 C-3.42857143 -1.28571429 -3.42857143 -1.28571429 0 0 Z " fill="#41DADC" transform="translate(21,52)"/>
  <path d="M0 0 C1.32 0 2.64 0 4 0 C3.67 1.65 3.34 3.3 3 5 C1.68 4.67 0.36 4.34 -1 4 C-0.67 2.68 -0.34 1.36 0 0 Z " fill="#1FECE0" transform="translate(67,48)"/>
  <path d="M0 0 C-0.33 1.32 -0.66 2.64 -1 4 C-3.64 3.67 -6.28 3.34 -9 3 C-4.5 0 -4.5 0 0 0 Z " fill="#37D2D8" transform="translate(21,43)"/>
  <path d="M0 0 C0.33 0.66 0.66 1.32 1 2 C0.01 2.99 -0.98 3.98 -2 5 C-2.33 4.34 -2.66 3.68 -3 3 C-2.01 2.01 -1.02 1.02 0 0 Z M-4 5 C-3.67 6.32 -3.34 7.64 -3 9 C-3.99 9.33 -4.98 9.66 -6 10 C-5.34 8.35 -4.68 6.7 -4 5 Z " fill="#255A8F" transform="translate(131,64)"/>
  <path d="M0 0 C1.98 0.495 1.98 0.495 4 1 C3.67 2.32 3.34 3.64 3 5 C1.68 5 0.36 5 -1 5 C-0.67 3.35 -0.34 1.7 0 0 Z " fill="#0FDADC" transform="translate(55,46)"/>
  <path d="M0 0 C0.99 0 1.98 0 3 0 C3.33 1.32 3.66 2.64 4 4 C2.68 4.33 1.36 4.66 0 5 C-0.5625 3.0625 -0.5625 3.0625 -1 1 C-0.67 0.67 -0.34 0.34 0 0 Z " fill="#31E9EA" transform="translate(75,65)"/>
  <path d="M0 0 C0 0.66 0 1.32 0 2 C-2.97 3.65 -5.94 5.3 -9 7 C-6.98222181 2.96444362 -4.85744506 0 0 0 Z " fill="#124C81" transform="translate(239,34)"/>
  <path d="M0 0 C1.32 0.66 2.64 1.32 4 2 C4 2.99 4 3.98 4 5 C2.35 5 0.7 5 -1 5 C-0.67 3.35 -0.34 1.7 0 0 Z " fill="#1ADFE8" transform="translate(54,26)"/>
  <path d="M0 0 C1.32 0 2.64 0 4 0 C4 1.65 4 3.3 4 5 C2.35 4.67 0.7 4.34 -1 4 C-0.67 2.68 -0.34 1.36 0 0 Z " fill="#43F3F0" transform="translate(41,84)"/>
  <path d="M0 0 C1.65 0 3.3 0 5 0 C4.67 1.32 4.34 2.64 4 4 C2.68 3.67 1.36 3.34 0 3 C0 2.01 0 1.02 0 0 Z " fill="#30E8D6" transform="translate(75,50)"/>
  <path d="M0 0 C1.9375 0.8125 1.9375 0.8125 4 2 C4.33 2.99 4.66 3.98 5 5 C3.35 4.67 1.7 4.34 0 4 C0 2.66666667 0 1.33333333 0 0 Z " fill="#16628F" transform="translate(77,31)"/>
  <path d="M0 0 C0.66 0.66 1.32 1.32 2 2 C-1.465 4.97 -1.465 4.97 -5 8 C-4.34 6.35 -3.68 4.7 -3 3 C-2.34 3 -1.68 3 -1 3 C-0.67 2.01 -0.34 1.02 0 0 Z " fill="#134B80" transform="translate(187,92)"/>
  <path d="M0 0 C1.65 0 3.3 0 5 0 C5.33 1.32 5.66 2.64 6 4 C4.68 4 3.36 4 2 4 C2 3.01 2 2.02 2 1 C1.34 0.67 0.68 0.34 0 0 Z " fill="#2ABBC8" transform="translate(54,63)"/>
  <path d="M0 0 C0.66 1.32 1.32 2.64 2 4 C-0.64 4 -3.28 4 -6 4 C-5.01 3.67 -4.02 3.34 -3 3 C-3 2.34 -3 1.68 -3 1 C-2.01 0.67 -1.02 0.34 0 0 Z " fill="#0B5681" transform="translate(87,47)"/>
  <path d="M0 0 C0.33 0.99 0.66 1.98 1 3 C-1.375 4.5625 -1.375 4.5625 -4 6 C-4.66 5.67 -5.32 5.34 -6 5 C-4.02 3.35 -2.04 1.7 0 0 Z M-8 6 C-7.01 6.495 -7.01 6.495 -6 7 C-6.99 7.495 -6.99 7.495 -8 8 C-8 7.34 -8 6.68 -8 6 Z " fill="#0D3F6D" transform="translate(156,35)"/>
  <path d="M0 0 C0.33 0.66 0.66 1.32 1 2 C1.66 2.33 2.32 2.66 3 3 C2.67 4.65 2.34 6.3 2 8 C1.896875 7.360625 1.79375 6.72125 1.6875 6.0625 C1.460625 5.381875 1.23375 4.70125 1 4 C0.01 3.67 -0.98 3.34 -2 3 C-2 2.34 -2 1.68 -2 1 C-1.34 0.67 -0.68 0.34 0 0 Z " fill="#1A7097" transform="translate(51,24)"/>
  </g>
</svg>
